<svg id="圖層_1" data-name="圖層 1" xmlns="http://www.w3.org/2000/svg" viewBox="0 0 62.96 37.65"><defs><style>.cls-1{fill:#fff;}</style></defs><title>logo</title><path id="_路徑_" data-name="&lt;路徑&gt;" class="cls-1" d="M56,2.32C47.48-2,41,.46,34.34,9.05L21.9,25.2h0l-.2.26c-4.06,5.26-7.57,6.42-11.07,4.65-3-1.53-3.59-4.27-2.31-6.79a20.77,20.77,0,0,1,2.21-3.57l8-10.36,6.65,3.37,4.63-6L23.14,3.4h0L16.42,0,4.25,15.87A27.29,27.29,0,0,0,1.56,20c-3.39,6.71-1.1,12,5.38,15.31,8.54,4.31,15,1.86,21.68-6.73L41.06,12.45h0l.19-.26c4.07-5.26,7.58-6.42,11.08-4.65a4.72,4.72,0,0,1,2.31,6.79,20.77,20.77,0,0,1-2.21,3.57l-8,10.36-6.65-3.37-4.64,6,6.68,3.38h0l6.71,3.4L58.71,21.78a27.29,27.29,0,0,0,2.69-4.15C64.79,10.92,62.5,5.6,56,2.32Z"/></svg>
